<svg xmlns="http://www.w3.org/2000/svg" width="61" height="61" viewBox="0 0 61 61" fill="none">
    <circle cx="28.5" cy="27.5" r="27.5" fill="white"/>
    <circle cx="28.5" cy="27.5" r="27" stroke="#0032A4" stroke-opacity="0.2"/>
    <path d="M36.2261 29.695C35.4504 25.8188 39.1554 23.5454 39.1554 23.5454C39.1554 23.5454 37.7119 21.4715 35.2859 20.9379C32.8611 20.4032 31.6475 21.0713 30.4363 21.5723C29.2239 22.0746 28.6189 22.0746 28.6189 22.0746C26.8693 22.0746 25.5903 20.235 22.2568 21.0725C19.9602 21.648 17.5426 24.2807 17.1058 27.4229C16.669 30.5662 17.6116 34.577 19.429 37.6855C21.2464 40.7964 23.0977 41.9656 24.4117 41.9992C25.7258 42.0316 27.0374 41.0644 28.6189 40.8289C30.2016 40.5957 31.1756 41.3984 32.728 41.8322C34.2743 42.2648 34.8164 41.8635 36.5975 40.3591C38.3834 38.8547 40 34.5398 40 34.5398C40 34.5398 37.0017 33.5737 36.2261 29.695Z" fill="black"/>
    <path d="M32.7921 18.4302C34.5103 16.6916 33.9283 14 33.9283 14C33.9283 14 31.5156 14.4206 29.899 16.0907C28.2837 17.7621 28.5511 20.402 28.5511 20.402C28.5511 20.402 31.0739 20.1677 32.7921 18.4302Z" fill="black"/>
</svg>