<svg xmlns="http://www.w3.org/2000/svg" width="61" height="61" viewBox="0 0 61 61" fill="none">
    <circle cx="28.5" cy="27.5" r="27.5" fill="white"/>
    <circle cx="28.5" cy="27.5" r="27" stroke="#0032A4" stroke-opacity="0.2"/>
    <g clip-path="url(#clip0_303_908)">
        <path d="M40.0561 25.7397L29.8588 25.7392C29.4085 25.7392 29.0435 26.1187 29.0435 26.587V29.9749C29.0435 30.4431 29.4085 30.8227 29.8588 30.8227H35.6012C34.9724 32.5199 33.7988 33.9412 32.3014 34.8443L34.75 39.2526C38.6778 36.8901 41 32.7448 41 28.1046C41 27.4438 40.9532 26.9715 40.8595 26.4397C40.7883 26.0356 40.451 25.7397 40.0561 25.7397Z" fill="#167EE6"/>
        <path d="M28.5 35.913C25.6898 35.913 23.2364 34.3162 21.9188 31.9532L17.6802 34.4939C19.8372 38.3819 23.8779 41 28.5 41C30.7674 41 32.9069 40.3651 34.75 39.2586V39.2526L32.3014 34.8442C31.1814 35.5198 29.8853 35.913 28.5 35.913Z" fill="#12B347"/>
        <path d="M34.75 39.2586V39.2526L32.3014 34.8442C31.1814 35.5198 29.8854 35.913 28.5 35.913V41C30.7674 41 32.907 40.3651 34.75 39.2586Z" fill="#0F993E"/>
        <path d="M20.8913 28C20.8913 26.5594 21.2693 25.2116 21.9188 24.0468L17.6802 21.506C16.6104 23.4168 16 25.6358 16 28C16 30.3642 16.6104 32.5832 17.6802 34.494L21.9188 31.9532C21.2693 30.7884 20.8913 29.4406 20.8913 28Z" fill="#FFD500"/>
        <path d="M28.5 20.087C30.3326 20.087 32.0159 20.7642 33.3307 21.8907C33.655 22.1685 34.1265 22.1485 34.4236 21.8395L36.7317 19.439C37.0688 19.0884 37.0448 18.5146 36.6847 18.1897C34.4818 16.2021 31.6156 15 28.5 15C23.8779 15 19.8372 17.6181 17.6802 21.506L21.9188 24.0468C23.2364 21.6838 25.6898 20.087 28.5 20.087Z" fill="#FF4B26"/>
        <path d="M33.3307 21.8907C33.655 22.1685 34.1265 22.1485 34.4236 21.8395L36.7317 19.439C37.0687 19.0884 37.0447 18.5146 36.6847 18.1897C34.4818 16.2021 31.6156 15 28.5 15V20.087C30.3325 20.087 32.0159 20.7642 33.3307 21.8907Z" fill="#D93F21"/>
    </g>
    <defs>
        <clipPath id="clip0_303_908">
            <rect width="25" height="26" fill="white" transform="translate(16 15)"/>
        </clipPath>
    </defs>
</svg>