<svg width="499" height="408" viewBox="0 0 499 408" fill="none" xmlns="http://www.w3.org/2000/svg">
<path d="M257.862 -16.183L309.013 68.2941L252.382 165.353L151.908 -16.183H257.862Z" fill="#042E4A"/>
<path d="M219.5 399.012L-12.5037 -12.5891H93.4505L270.65 309.143L219.5 399.012Z" fill="#042E4A"/>
<path d="M299.88 257.019L248.729 161.757L345.549 -12.5891H451.504L299.88 257.019Z" fill="#042E4A"/>
<path d="M219.5 -142C64.2222 -142 -60 -19.7778 -60 133C-60 285.778 64.2222 408 219.5 408C374.778 408 499 285.778 499 133C499 -19.7778 372.951 -142 219.5 -142ZM219.5 391.824C73.3562 391.824 -43.5588 274.993 -43.5588 133C-43.5588 -8.99347 73.3562 -125.824 219.5 -125.824C365.644 -125.824 482.559 -10.7908 482.559 133C482.559 276.791 365.644 391.824 219.5 391.824Z" fill="#042E4A"/>
</svg>
